<svg width="1920" height="1080" viewBox="0 0 1920 1080" xmlns="http://www.w3.org/2000/svg"><rect width="1920" height="1080" fill="#a9bfcb"/><path d="M 0,1080 C 0,1080 0,154 0,154 C 61.51307069219439,160.18556701030928 123.02614138438878,166.37113402061854 200,176 C 276.9738586156112,185.62886597938146 369.4085051546392,198.70103092783503 455,207 C 540.5914948453608,215.29896907216497 619.3398379970544,218.82474226804123 700,192 C 780.6601620029456,165.17525773195877 863.2321428571429,108.00000000000001 952,108 C 1040.767857142857,107.99999999999999 1135.731590574374,165.17525773195877 1230,179 C 1324.268409425626,192.82474226804123 1417.841494845361,163.29896907216494 1481,155 C 1544.158505154639,146.70103092783506 1576.9024300441827,159.62886597938146 1645,163 C 1713.0975699558173,166.37113402061854 1816.5487849779088,160.18556701030928 1920,154 C 1920,154 1920,1080 1920,1080 Z" fill="#655289" opacity="0.08571428571428572"/><path d="M 0,1080 C 0,1080 0,308 0,308 C 86.33468335787924,290.27337997054497 172.66936671575849,272.5467599410899 262,279 C 351.3306332842415,285.4532400589101 443.65721649484533,316.0863402061855 510,326 C 576.3427835051547,335.9136597938145 616.7017673048601,325.1078792341679 682,331 C 747.2982326951399,336.8921207658321 837.5357142857144,359.4821428571429 922,361 C 1006.4642857142856,362.5178571428571 1085.1553755522827,342.96354933726064 1162,327 C 1238.8446244477173,311.03645066273936 1313.8427835051543,298.6636597938144 1397,293 C 1480.1572164948457,287.3363402061856 1571.4734904270988,288.38181148748157 1660,292 C 1748.5265095729012,295.61818851251843 1834.2632547864505,301.8090942562592 1920,308 C 1920,308 1920,1080 1920,1080 Z" fill="#655289" opacity="0.17142857142857143"/><path d="M 0,1080 C 0,1080 0,462 0,462 C 88.0027614138439,469.10530191458025 176.0055228276878,476.2106038291605 256,484 C 335.9944771723122,491.7893961708395 407.98067010309273,500.2628865979382 480,505 C 552.0193298969073,509.7371134020618 624.0717967599412,510.73784977908696 714,483 C 803.9282032400588,455.26215022091304 911.7321428571429,398.7857142857143 995,405 C 1078.267857142857,411.2142857142857 1136.9996318114877,480.119293078056 1214,504 C 1291.0003681885123,527.880706921944 1386.269329896907,506.73711340206177 1472,489 C 1557.730670103093,471.26288659793823 1633.9230486008837,456.93225331369666 1707,453 C 1780.0769513991163,449.06774668630334 1850.0384756995581,455.53387334315164 1920,462 C 1920,462 1920,1080 1920,1080 Z" fill="#655289" opacity="0.2571428571428571"/><path d="M 0,1080 C 0,1080 0,617 0,617 C 94.03313696612668,595.4841678939617 188.06627393225335,573.9683357879234 273,591 C 357.93372606774665,608.0316642120766 433.7680412371134,663.610824742268 495,660 C 556.2319587628866,656.389175257732 602.8615611192931,593.5883652430044 692,578 C 781.1384388807069,562.4116347569956 912.7857142857142,594.0357142857143 989,597 C 1065.2142857142858,599.9642857142857 1085.99558173785,574.2687776141385 1164,585 C 1242.00441826215,595.7312223858615 1377.2319587628867,642.8891752577318 1473,647 C 1568.7680412371133,651.1108247422682 1625.0765832106038,612.1745213549337 1693,600 C 1760.9234167893962,587.8254786450663 1840.4617083946982,602.4127393225331 1920,617 C 1920,617 1920,1080 1920,1080 Z" fill="#655289" opacity="0.34285714285714286"/><path d="M 0,1080 C 0,1080 0,771 0,771 C 83.88236377025038,746.0036818851252 167.76472754050076,721.0073637702504 258,722 C 348.23527245949924,722.9926362297496 444.8234536082473,749.9742268041238 514,753 C 583.1765463917527,756.0257731958762 624.9414580265095,735.0957290132549 709,740 C 793.0585419734905,744.9042709867451 919.4107142857144,775.6428571428571 995,790 C 1070.5892857142856,804.3571428571429 1095.4156848306332,802.3328424153166 1160,787 C 1224.5843151693668,771.6671575846834 1328.9265463917527,743.0257731958764 1433,752 C 1537.0734536082473,760.9742268041236 1640.8781296023565,807.5640648011782 1722,817 C 1803.1218703976435,826.4359351988218 1861.5609351988219,798.7179675994109 1920,771 C 1920,771 1920,1080 1920,1080 Z" fill="#655289" opacity="0.4285714285714286"/><path d="M 0,1080 C 0,1080 0,925 0,925 C 70.79252577319588,907.4317010309278 141.58505154639175,889.8634020618556 213,888 C 284.41494845360825,886.1365979381444 356.45231958762884,899.9780927835052 454,898 C 551.5476804123712,896.0219072164948 674.6056701030928,878.2242268041239 756,883 C 837.3943298969072,887.7757731958761 877.125,915.1249999999999 956,934 C 1034.875,952.8750000000001 1152.8943298969075,963.2757731958765 1243,969 C 1333.1056701030925,974.7242268041235 1395.2976804123712,975.7719072164947 1465,959 C 1534.7023195876288,942.2280927835053 1611.9149484536083,907.6365979381444 1689,899 C 1766.0850515463917,890.3634020618556 1843.0425257731958,907.6817010309278 1920,925 C 1920,925 1920,1080 1920,1080 Z" fill="#655289" opacity="0.5142857142857142"/><path d="M 0,1080 C 0,1080 0,1079 0,1079 C 75.19569219440353,1069.2603092783506 150.39138438880707,1059.520618556701 219,1052 C 287.60861561119293,1044.479381443299 349.6301546391752,1039.1778350515463 440,1056 C 530.3698453608248,1072.8221649484537 649.0879970544919,1111.7680412371135 737,1114 C 824.9120029455081,1116.2319587628865 882.0178571428571,1081.75 944,1054 C 1005.9821428571429,1026.25 1072.8405743740793,1005.2319587628863 1171,1023 C 1269.1594256259207,1040.7680412371137 1398.6198453608247,1097.3221649484537 1478,1119 C 1557.3801546391753,1140.6778350515463 1586.6800441826215,1127.479381443299 1652,1115 C 1717.3199558173785,1102.520618556701 1818.6599779086891,1090.7603092783506 1920,1079 C 1920,1079 1920,1080 1920,1080 Z" fill="#655289" opacity="0.6"/></svg>